# xmcd
# Copyright (C) 1995-1998 Ti Kan
#
# Track frame offsets:
#       150
#       12772
#       28102
#       38815
#       54815
#       66515
#       86017
#       108772
#       119687
#       134177
#       151262
#
# Disc length: 2168 seconds
#
# Revision: 0
# Processed by: cddbd v1.5.2PL0 Copyright (c) Steve Scherf et al.
# Submitted via: CD-Import v1.0
#
DISCID=9108760b
DTITLE=John Cale - Vintage Violence
DYEAR=1970
DGENRE=
TTITLE0=Hello, There
TTITLE1=Gideon's Bible
TTITLE2=Adelaide
TTITLE3=Big White Cloud
TTITLE4=Cleo
TTITLE5=Please
TTITLE6=Charlemagne
TTITLE7=Bring It On Up
TTITLE8=Amsterdam
TTITLE9=Ghost Story
TTITLE10=Fairweather Friends
EXTD=
EXTT0=
EXTT1=
EXTT2=
EXTT3=
EXTT4=
EXTT5=
EXTT6=
EXTT7=
EXTT8=
EXTT9=
EXTT10=
PLAYORDER=
